<svg id="Layer_3" data-name="Layer 3" xmlns="http://www.w3.org/2000/svg" viewBox="0 0 307.28 240.63"><defs><style>.cls-1{fill:#d45113;}.cls-2{fill:#727d66;}</style></defs><path class="cls-1" d="M110.85,238,17.54,104.77A4.93,4.93,0,0,1,21.59,97H63a4.93,4.93,0,0,1,4.09,2.17l44.71,66a13.14,13.14,0,0,0,21.24.72L221.06,53.08a5,5,0,0,1,3.89-1.9h43.31a4.94,4.94,0,0,1,3.89,8L132,238.58A13.14,13.14,0,0,1,110.85,238Z" transform="translate(-16.64 -51.18)"/><path class="cls-2" d="M322.86,85.21a4.94,4.94,0,0,0-3.89-8H275.66a4.9,4.9,0,0,0-3.88,1.9L178.94,198a10.67,10.67,0,0,0-2.26,6.56v62a2,2,0,0,0,3.58,1.23l34.47-44.12a2,2,0,0,1,3.21.09l46.29,66a5,5,0,0,0,4,2.11h41.66a4.94,4.94,0,0,0,4-7.77L247.41,189a6.26,6.26,0,0,1,.2-7.45Z" transform="translate(-16.64 -51.18)"/></svg>